<?xml version="1.0" encoding="UTF-8" standalone="no"?><!DOCTYPE svg PUBLIC "-//W3C//DTD SVG 1.1//EN" "http://www.w3.org/Graphics/SVG/1.1/DTD/svg11.dtd"><svg width="100%" height="100%" viewBox="0 0 960 280" version="1.1" xmlns="http://www.w3.org/2000/svg" xmlns:xlink="http://www.w3.org/1999/xlink" xml:space="preserve" xmlns:serif="http://www.serif.com/" style="fill-rule:evenodd;clip-rule:evenodd;stroke-linejoin:round;stroke-miterlimit:2;"><rect id="Artboard1" x="0" y="0" width="960" height="280" style="fill:none;"/><g><path d="M156.669,245.92c-3.721,-0 -7.197,-1.567 -10.428,-4.7c-32.409,-32.017 -68.44,-53.557 -108.094,-64.621l1.175,28.786l0.734,28.932c0,4.309 -1.395,7.907 -4.185,10.795c-2.791,2.889 -6.291,4.333 -10.501,4.333c-4.21,-0 -7.711,-1.444 -10.501,-4.333c-2.791,-2.888 -4.186,-6.486 -4.186,-10.795c0,-7.734 -0.367,-19.264 -1.101,-34.587c-0.735,-15.323 -1.102,-26.852 -1.102,-34.587c0,-9.008 0.979,-22.421 2.937,-40.241c1.959,-17.82 2.938,-31.185 2.938,-40.095c-0,-4.993 -0.465,-12.386 -1.396,-22.177c-0.93,-9.791 -1.395,-17.183 -1.395,-22.177c0,-5.58 1.567,-10.476 4.7,-14.686c3.721,-5.19 8.861,-7.539 15.421,-7.05l35.395,2.791c13.414,1.664 24.722,4.944 33.926,9.84c39.654,21.051 59.481,46.752 59.481,77.105c0,14.882 -6.756,28.051 -20.268,39.507c-10.868,9.204 -24.428,16.204 -40.682,21.002c30.451,16.351 53.215,33.583 68.293,51.697c2.546,3.133 3.819,6.462 3.819,9.987c-0,4.112 -1.493,7.686 -4.479,10.721c-2.987,3.035 -6.487,4.553 -10.501,4.553Zm-93.555,-194.158l-21.736,-1.762l1.469,17.771c0.685,7.245 1.028,13.169 1.028,17.771c-0,7.832 -0.636,17.575 -1.909,29.226l-3.085,29.226c1.371,0 3.501,0.049 6.389,0.147c2.889,0.098 5.067,0.147 6.536,0.147c24.967,0 43.668,-3.329 56.103,-9.987c5.483,-3.035 10.574,-7 15.274,-11.896c5.189,-5.483 7.784,-10.134 7.784,-13.952c-0,-13.61 -7.735,-26.289 -23.205,-38.039c-14.197,-10.77 -29.08,-16.987 -44.648,-18.652Z" style="fill:#e8ff47;fill-rule:nonzero;"/><path d="M269.315,251.06c-22.128,0 -40.045,-5.532 -53.753,-16.596c-14.98,-12.239 -22.471,-29.373 -22.471,-51.403c0,-25.457 6.169,-46.802 18.506,-64.034c13.414,-18.799 31.331,-28.198 53.753,-28.198c16.253,-0 29.52,2.741 39.801,8.224c12.63,6.756 18.946,17.135 18.946,31.136c-0,9.791 -5.532,18.701 -16.596,26.73c-4.896,3.525 -15.274,9.008 -31.136,16.449l-56.103,26.583c5.483,8.126 12.312,14.246 20.488,18.358c8.175,4.112 17.697,6.168 28.565,6.168c6.756,0 14.687,-1.272 23.793,-3.818c11.553,-3.231 18.994,-7.466 22.323,-12.704c3.329,-5.238 6.903,-7.857 10.722,-7.857c3.427,-0 6.486,1.297 9.179,3.892c2.692,2.594 4.039,5.605 4.039,9.032c-0,10.868 -8.763,20.218 -26.289,28.051c-14.981,6.658 -29.57,9.987 -43.767,9.987Zm-3.965,-133.795c-11.945,-0 -21.883,4.626 -29.814,13.879c-7.931,9.252 -13.854,23.18 -17.771,41.783l45.088,-21.442c17.722,-8.617 30.353,-16.107 37.892,-22.471c-8.421,-7.833 -20.219,-11.749 -35.395,-11.749Z" style="fill:#e8ff47;fill-rule:nonzero;"/><path d="M583.757,256.494c-5.287,0 -9.644,-2.741 -13.071,-8.224c-2.938,-4.7 -5.581,-12.533 -7.931,-23.499l-5.287,-25.261c-4.015,-15.666 -10.379,-50.228 -19.093,-103.688l-29.373,88.561l-8.665,27.904c-3.525,11.064 -7.197,20.121 -11.015,27.171c-4.113,7.441 -9.645,11.162 -16.596,11.162c-5.777,-0 -10.33,-3.133 -13.659,-9.4c-2.154,-4.112 -4.112,-9.35 -5.875,-15.715l-4.259,-16.302c-9.889,-34.562 -18.603,-71.573 -26.142,-111.031l-5.287,26.289l-18.946,77.546c-0.783,9.106 -3.231,22.568 -7.343,40.388c-2.938,7.637 -7.784,11.456 -14.54,11.456c-4.798,-0 -8.616,-1.714 -11.456,-5.141c-2.448,-2.937 -3.671,-6.56 -3.671,-10.868c-0,-16.351 3.378,-36.423 10.133,-60.215l16.156,-59.187l8.518,-46.263c4.308,-21.639 8.861,-35.787 13.659,-42.445c3.916,-5.679 8.763,-8.518 14.539,-8.518c6.365,-0 11.113,3.623 14.246,10.868c3.819,8.714 7.931,26.485 12.337,53.313c5.19,32.212 13.267,67.069 24.233,104.569c14.491,-37.696 27.024,-76.958 37.598,-117.787l4.406,-21.443c1.763,-8.616 4.063,-15.568 6.903,-20.855c3.818,-7.245 9.057,-10.868 15.715,-10.868c8.42,-0 14.833,8.127 19.239,24.38c1.567,5.581 3.476,17.134 5.728,34.66c5.777,44.256 12.973,82.05 21.589,113.381l7.197,25.261c3.72,13.512 5.581,21.835 5.581,24.968c-0,4.21 -1.591,7.735 -4.773,10.574c-3.182,2.84 -6.781,4.259 -10.795,4.259Z" style="fill:#e8ff47;fill-rule:nonzero;"/><path d="M913.264,236.539c-36.642,14.774 -136.15,32.52 -126.653,16.238c69.271,6.057 -16.352,8.198 -53.344,8.564c-29.468,0.292 -55.393,-11.749 -77.766,-35.248c-22.372,-23.499 -33.559,-50.082 -33.559,-79.749c0,-34.954 13.022,-64.621 39.067,-89.001c25.457,-23.694 55.564,-35.542 90.323,-35.542c36.619,0 64.376,13.708 83.273,41.123c16.058,23.499 24.086,53.9 24.086,91.204c0,32.409 -15.861,59.677 -47.584,81.805l41.116,-10.555c24.002,-7.686 40.643,-19.982 54.33,-34.128c34.441,-50.189 77.761,16.641 6.711,45.289Zm-161.932,-184.336c-26.828,-0 -49.935,8.959 -69.321,26.876c-19.974,18.408 -29.961,40.829 -29.961,67.265c-0,21.443 8.273,40.829 24.82,58.16c16.645,17.624 35.444,26.436 56.397,26.436c6.756,-0 13.708,-0.833 20.855,-2.497c-18.897,-16.449 -28.345,-29.422 -28.345,-38.92c0,-4.308 1.591,-7.882 4.773,-10.721c3.182,-2.84 6.732,-4.259 10.648,-4.259c4.7,-0 8.861,2.35 12.484,7.049c9.693,12.631 20.659,23.94 32.898,33.927c27.905,-16.254 41.857,-36.717 41.857,-61.391c-0,-29.079 -5.924,-52.676 -17.771,-70.789c-13.512,-20.758 -33.29,-31.136 -59.334,-31.136Z" style="fill:#e8ff47;fill-rule:nonzero;"/></g></svg>